<mxGraphModel dx="1098" dy="988" grid="1" gridSize="10" guides="1" tooltips="1" connect="1" arrows="1" fold="1" page="1" pageScale="1" pageWidth="827" pageHeight="1169" math="0" shadow="0">
  <root>
    <mxCell id="0" />
    <mxCell id="1" parent="0" />
    <mxCell id="8yKLrgHE4u2FRmZpzIXI-26" value="mobile / tablet /desktop" style="rounded=0;whiteSpace=wrap;html=1;fillColor=none;verticalAlign=top;" parent="1" vertex="1">
      <mxGeometry x="520" y="40" width="200" height="230" as="geometry" />
    </mxCell>
    <mxCell id="IG7K5a-l5Ubg2XisgtZ6-7" value="desktop" style="rounded=0;whiteSpace=wrap;html=1;fillColor=none;verticalAlign=top;" parent="1" vertex="1">
      <mxGeometry x="520" y="280" width="200" height="180" as="geometry" />
    </mxCell>
    <mxCell id="8yKLrgHE4u2FRmZpzIXI-19" value="view exercise" style="ellipse;whiteSpace=wrap;html=1;" parent="1" vertex="1">
      <mxGeometry x="560" y="220" width="120" height="40" as="geometry" />
    </mxCell>
    <mxCell id="8yKLrgHE4u2FRmZpzIXI-20" value="search exercises" style="ellipse;whiteSpace=wrap;html=1;" parent="1" vertex="1">
      <mxGeometry x="560" y="170" width="120" height="40" as="geometry" />
    </mxCell>
    <mxCell id="IG7K5a-l5Ubg2XisgtZ6-1" value="create exercise" style="ellipse;whiteSpace=wrap;html=1;" parent="1" vertex="1">
      <mxGeometry x="560" y="310" width="120" height="40" as="geometry" />
    </mxCell>
    <mxCell id="IG7K5a-l5Ubg2XisgtZ6-2" value="create training" style="ellipse;whiteSpace=wrap;html=1;" parent="1" vertex="1">
      <mxGeometry x="560" y="360" width="120" height="40" as="geometry" />
    </mxCell>
    <mxCell id="IG7K5a-l5Ubg2XisgtZ6-3" value="search trainings" style="ellipse;whiteSpace=wrap;html=1;" parent="1" vertex="1">
      <mxGeometry x="560" y="70" width="120" height="40" as="geometry" />
    </mxCell>
    <mxCell id="IG7K5a-l5Ubg2XisgtZ6-5" value="senior&lt;br&gt;trainier" style="shape=umlActor;verticalLabelPosition=bottom;verticalAlign=top;html=1;" parent="1" vertex="1">
      <mxGeometry x="450" y="350" width="30" height="60" as="geometry" />
    </mxCell>
    <mxCell id="IG7K5a-l5Ubg2XisgtZ6-6" value="print training" style="ellipse;whiteSpace=wrap;html=1;" parent="1" vertex="1">
      <mxGeometry x="560" y="410" width="120" height="40" as="geometry" />
    </mxCell>
    <mxCell id="IG7K5a-l5Ubg2XisgtZ6-12" value="" style="endArrow=none;html=1;rounded=0;exitX=0.5;exitY=0.5;exitDx=0;exitDy=0;exitPerimeter=0;" parent="1" source="8yKLrgHE4u2FRmZpzIXI-18" target="8yKLrgHE4u2FRmZpzIXI-20" edge="1">
      <mxGeometry width="50" height="50" relative="1" as="geometry">
        <mxPoint x="660" y="220" as="sourcePoint" />
        <mxPoint x="710" y="170" as="targetPoint" />
        <Array as="points" />
      </mxGeometry>
    </mxCell>
    <mxCell id="IG7K5a-l5Ubg2XisgtZ6-13" value="" style="endArrow=none;html=1;rounded=0;exitX=0.5;exitY=0.5;exitDx=0;exitDy=0;exitPerimeter=0;" parent="1" source="IG7K5a-l5Ubg2XisgtZ6-5" target="IG7K5a-l5Ubg2XisgtZ6-1" edge="1">
      <mxGeometry width="50" height="50" relative="1" as="geometry">
        <mxPoint x="490" y="190" as="sourcePoint" />
        <mxPoint x="510" y="310" as="targetPoint" />
      </mxGeometry>
    </mxCell>
    <mxCell id="IG7K5a-l5Ubg2XisgtZ6-14" value="" style="endArrow=none;html=1;rounded=0;exitX=0.5;exitY=0.5;exitDx=0;exitDy=0;exitPerimeter=0;" parent="1" source="IG7K5a-l5Ubg2XisgtZ6-5" target="IG7K5a-l5Ubg2XisgtZ6-6" edge="1">
      <mxGeometry width="50" height="50" relative="1" as="geometry">
        <mxPoint x="480" y="300" as="sourcePoint" />
        <mxPoint x="575" y="322" as="targetPoint" />
      </mxGeometry>
    </mxCell>
    <mxCell id="IG7K5a-l5Ubg2XisgtZ6-15" value="" style="endArrow=none;html=1;rounded=0;exitX=0.5;exitY=0.5;exitDx=0;exitDy=0;exitPerimeter=0;" parent="1" source="IG7K5a-l5Ubg2XisgtZ6-5" target="IG7K5a-l5Ubg2XisgtZ6-2" edge="1">
      <mxGeometry width="50" height="50" relative="1" as="geometry">
        <mxPoint x="500" y="330" as="sourcePoint" />
        <mxPoint x="580" y="380" as="targetPoint" />
      </mxGeometry>
    </mxCell>
    <mxCell id="IG7K5a-l5Ubg2XisgtZ6-16" value="" style="endArrow=none;html=1;rounded=0;exitX=0.5;exitY=0.5;exitDx=0;exitDy=0;exitPerimeter=0;" parent="1" source="8yKLrgHE4u2FRmZpzIXI-18" target="8yKLrgHE4u2FRmZpzIXI-19" edge="1">
      <mxGeometry width="50" height="50" relative="1" as="geometry">
        <mxPoint x="470" y="210" as="sourcePoint" />
        <mxPoint x="690" y="240" as="targetPoint" />
      </mxGeometry>
    </mxCell>
    <mxCell id="IG7K5a-l5Ubg2XisgtZ6-17" value="" style="endArrow=none;html=1;rounded=0;exitX=0.5;exitY=0.5;exitDx=0;exitDy=0;exitPerimeter=0;" parent="1" source="8yKLrgHE4u2FRmZpzIXI-18" target="IG7K5a-l5Ubg2XisgtZ6-3" edge="1">
      <mxGeometry width="50" height="50" relative="1" as="geometry">
        <mxPoint x="450" y="180" as="sourcePoint" />
        <mxPoint x="571" y="197" as="targetPoint" />
      </mxGeometry>
    </mxCell>
    <mxCell id="cy_90cDGH3oNu5nexi1f-1" value="view training" style="ellipse;whiteSpace=wrap;html=1;" parent="1" vertex="1">
      <mxGeometry x="560" y="120" width="120" height="40" as="geometry" />
    </mxCell>
    <mxCell id="cy_90cDGH3oNu5nexi1f-2" value="" style="endArrow=none;html=1;rounded=0;exitX=0.5;exitY=0.5;exitDx=0;exitDy=0;exitPerimeter=0;" parent="1" source="8yKLrgHE4u2FRmZpzIXI-18" target="cy_90cDGH3oNu5nexi1f-1" edge="1">
      <mxGeometry width="50" height="50" relative="1" as="geometry">
        <mxPoint x="470" y="190" as="sourcePoint" />
        <mxPoint x="602" y="118" as="targetPoint" />
      </mxGeometry>
    </mxCell>
    <mxCell id="8yKLrgHE4u2FRmZpzIXI-18" value="junior&lt;br&gt;trainer" style="shape=umlActor;verticalLabelPosition=bottom;verticalAlign=top;html=1;" parent="1" vertex="1">
      <mxGeometry x="450" y="140" width="30" height="60" as="geometry" />
    </mxCell>
  </root>
</mxGraphModel>
